<?xml version="1.0" encoding="utf-8"?>
<!-- Generator: Adobe Illustrator 23.1.1, SVG Export Plug-In . SVG Version: 6.00 Build 0)  -->
<svg version="1.1" id="Ebene_1" xmlns="http://www.w3.org/2000/svg" xmlns:xlink="http://www.w3.org/1999/xlink" x="0px" y="0px"
	 viewBox="0 0 75 80" style="enable-background:new 0 0 75 80;" xml:space="preserve">
<rect x="6.12" y="62.86" width="5.71" height="5.71"/>
<rect x="11.84" y="62.86" width="5.71" height="5.71"/>
<rect x="17.55" y="68.57" width="5.71" height="5.71"/>
<rect x="23.26" y="68.57" width="5.71" height="5.71"/>
<rect x="63.26" y="62.86" width="5.71" height="5.71"/>
<rect x="57.55" y="62.86" width="5.71" height="5.71"/>
<rect x="51.84" y="68.57" width="5.71" height="5.71"/>
<rect x="46.12" y="68.57" width="5.71" height="5.71"/>
<rect x="6.12" y="11.43" width="5.71" height="5.71"/>
<rect x="11.84" y="11.43" width="5.71" height="5.71"/>
<rect x="57.55" y="11.43" width="5.71" height="5.71"/>
<rect x="63.26" y="11.43" width="5.71" height="5.71"/>
<rect x="17.55" y="5.71" width="5.71" height="5.71"/>
<rect x="23.26" y="5.71" width="5.71" height="5.71"/>
<rect x="46.12" y="5.71" width="5.71" height="5.71"/>
<rect x="51.83" y="5.71" width="5.71" height="5.71"/>
<rect x="6.12" y="22.86" width="5.71" height="5.71"/>
<rect x="11.84" y="22.86" width="5.71" height="5.71"/>
<rect x="17.55" y="28.57" width="5.71" height="5.71"/>
<rect x="23.26" y="28.57" width="5.71" height="5.71"/>
<rect x="46.12" y="28.57" width="5.71" height="5.71"/>
<rect x="51.83" y="28.57" width="5.71" height="5.71"/>
<rect x="28.98" y="74.29" width="5.71" height="5.71"/>
<rect x="34.69" y="74.29" width="5.71" height="5.71"/>
<rect x="40.41" y="74.29" width="5.71" height="5.71"/>
<rect x="28.98" y="34.29" width="5.71" height="5.71"/>
<rect x="34.69" y="34.29" width="5.71" height="5.71"/>
<rect x="40.41" y="34.29" width="5.71" height="5.71"/>
<rect x="28.98" width="5.71" height="5.71"/>
<rect x="34.69" width="5.71" height="5.71"/>
<rect x="40.41" width="5.71" height="5.71"/>
<rect x="0.41" y="57.14" width="5.71" height="5.71"/>
<rect x="0.41" y="51.43" width="5.71" height="5.71"/>
<rect x="0.41" y="45.71" width="5.71" height="5.71"/>
<rect x="0.41" y="40" width="5.71" height="5.71"/>
<rect x="0.41" y="34.29" width="5.71" height="5.71"/>
<rect x="0.41" y="28.57" width="5.71" height="5.71"/>
<rect x="68.98" y="57.14" width="5.71" height="5.71"/>
<rect x="68.98" y="51.43" width="5.71" height="5.71"/>
<rect x="68.98" y="45.71" width="5.71" height="5.71"/>
<rect x="68.98" y="40" width="5.71" height="5.71"/>
<rect x="68.98" y="34.29" width="5.71" height="5.71"/>
<rect x="68.98" y="28.57" width="5.71" height="5.71"/>
<rect x="0.41" y="22.86" width="5.71" height="5.71"/>
<rect x="0.41" y="17.14" width="5.71" height="5.71"/>
<rect x="63.26" y="22.86" width="5.71" height="5.71"/>
<rect x="57.55" y="22.86" width="5.71" height="5.71"/>
<rect x="68.98" y="22.86" width="5.71" height="5.71"/>
<rect x="68.98" y="17.14" width="5.71" height="5.71"/>
<rect x="34.69" y="68.57" width="5.71" height="5.71"/>
<rect x="34.69" y="62.86" width="5.71" height="5.71"/>
<rect x="34.69" y="62.86" width="5.71" height="5.71"/>
<rect x="34.69" y="17.14" width="5.71" height="5.71"/>
<rect x="34.69" y="57.14" width="5.71" height="5.71"/>
<rect x="34.69" y="51.43" width="5.71" height="5.71"/>
<rect x="34.69" y="45.72" width="5.71" height="5.71"/>
<rect x="46.12" y="45.72" width="5.71" height="5.71"/>
<rect x="57.55" y="40" width="5.71" height="5.71"/>
<rect x="46.12" y="57.14" width="5.71" height="5.71"/>
<rect x="23.26" y="57.14" width="5.71" height="5.71"/>
<rect x="11.84" y="40" width="5.71" height="5.71"/>
<rect x="57.55" y="51.43" width="5.71" height="5.71"/>
<rect x="34.69" y="40" width="5.71" height="5.71"/>
</svg>
