<?xml version="1.0" encoding="utf-8"?>
<!-- Generator: Adobe Illustrator 24.3.0, SVG Export Plug-In . SVG Version: 6.00 Build 0)  -->
<svg version="1.1" id="Ebene_1" xmlns="http://www.w3.org/2000/svg" xmlns:xlink="http://www.w3.org/1999/xlink" x="0px" y="0px"
	 viewBox="0 0 75 80" style="enable-background:new 0 0 75 80;" xml:space="preserve">
<g id="gS5try.tif">
	<g>
		<path d="M2.7,60c0-13.3,0-26.6,0-39.9C2.8,20,2.9,19.9,3,19.8c4-2.3,8-4.6,12-6.9c7.4-4.3,14.7-8.5,22.1-12.8
			c0.1-0.1,0.2-0.1,0.3-0.2c0.1,0.1,0.2,0.1,0.3,0.2c1.4,0.8,2.8,1.6,4.2,2.4c10,5.8,19.9,11.5,29.9,17.3c0.1,0,0.1,0.1,0.2,0.1
			c0,13.4,0,26.7,0,40.1c-0.1,0-0.2,0.1-0.3,0.1C61.6,66,51.5,71.8,41.4,77.6c-1.2,0.7-2.5,1.4-3.7,2.1c-0.1,0.1-0.2,0.1-0.3,0.2
			c0,0,0,0-0.1,0c-0.1-0.1-0.2-0.2-0.4-0.3c-2.3-1.3-4.5-2.6-6.8-3.9C21.2,70.6,12.1,65.3,3,60.1C2.9,60,2.8,60,2.7,60z M64.3,21.5
			C64.3,21.4,64.3,21.4,64.3,21.5c-9-5.3-18-10.4-26.9-15.6C37.2,6,37.1,6,37,6.1c-7.4,4.3-14.8,8.6-22.2,12.8
			c-1.3,0.8-2.7,1.5-4,2.3c-0.1,0.1-0.2,0.1-0.3,0.2c0.2,0.1,0.3,0.2,0.5,0.3c6.7,3.9,13.5,7.8,20.2,11.7c2,1.1,4,2.3,5.9,3.4
			c0.1,0.1,0.2,0.1,0.3,0.2C46.4,31.8,55.4,26.7,64.3,21.5z M7.9,25.9c0,0.1,0,0.1,0,0.1c0,10.2,0,20.5,0,30.7c0,0.1,0,0.1,0,0.2
			c0,0,0,0,0,0c0,0,0,0,0,0.1c0.1,0.1,0.2,0.1,0.3,0.2C16.2,61.8,24.1,66.4,32,71c0.9,0.5,1.7,1,2.6,1.5c0.1,0,0.1,0.1,0.3,0.1
			c0,0,0,0,0-0.1c0-10.3,0-20.5,0-30.8c0-0.1,0-0.1,0-0.2c0,0,0,0,0,0c0,0,0,0,0-0.1C25.9,36.3,16.9,31.1,8,26
			C8,25.9,7.9,25.9,7.9,25.9z M66.9,25.9C66.9,25.9,66.9,25.9,66.9,25.9c-0.2,0-0.2,0.1-0.3,0.1C57.7,31.2,48.9,36.3,40,41.4
			c0,0,0,0,0,0c0,0,0,0,0,0.1c0,0.1,0,0.3,0,0.4c0,10,0,20.1,0,30.1c0,0.1,0,0.2,0,0.3c0,0.1,0,0.1,0.1,0.1c0,0,0,0,0.1,0
			c0,0,0.1,0,0.1-0.1C49.1,67.3,58,62.2,66.9,57c0,0,0,0,0,0c0,0,0,0,0,0C66.9,46.6,66.9,36.3,66.9,25.9z"/>
		<path d="M37.5,23.9c-0.7,0-1.4-0.1-1.9-0.5c-0.4-0.2-0.7-0.5-0.9-0.8c-0.6-0.7-0.6-1.7,0-2.4c0.3-0.4,0.6-0.7,1.1-0.9
			c1.2-0.5,2.4-0.5,3.5,0c0.4,0.2,0.7,0.4,1,0.8c0.7,0.8,0.6,1.8,0,2.6c-0.4,0.5-1,0.8-1.6,1C38.2,23.9,37.8,23.9,37.5,23.9z"/>
		<path d="M30.1,60.1c0,0.4-0.1,0.8-0.3,1.2c-0.4,0.8-1.2,1.1-2,1c-0.5-0.1-1-0.2-1.4-0.5c-1-0.7-1.6-1.7-1.7-3c0-0.5,0-0.9,0.2-1.3
			c0.4-1,1.4-1.3,2.1-1.2c0.4,0.1,0.8,0.2,1.1,0.4C29.3,57.4,30.1,58.8,30.1,60.1z"/>
		<path d="M17.2,46c-0.4,0-0.8-0.1-1.2-0.3c-1.1-0.6-1.8-1.5-2.1-2.7c-0.1-0.5-0.1-1.1,0-1.6c0-0.1,0-0.1,0.1-0.2
			c0.3-0.9,1.2-1.5,2.4-1.3c0.5,0.1,1,0.3,1.4,0.7c0.9,0.8,1.4,1.7,1.5,2.9c0,0.4,0,0.9-0.2,1.3C18.7,45.6,18.1,46,17.2,46z"/>
		<path d="M62.1,40.7c-0.1,1.5-0.8,2.6-2,3.3c-0.3,0.2-0.6,0.3-1,0.3c-0.7,0.1-1.7-0.1-2.1-1.1c-0.2-0.4-0.3-0.8-0.3-1.3
			c0.1-1.3,0.7-2.3,1.7-3.1c0.4-0.3,0.9-0.5,1.4-0.6c0.9-0.1,1.6,0.4,2,1C62.1,39.8,62.1,40.2,62.1,40.7z"/>
		<path d="M51.3,58.7c-0.1,1.5-0.8,2.7-2.1,3.4c-0.4,0.2-0.8,0.3-1.2,0.3c-0.8,0-1.4-0.4-1.8-1.1c-0.2-0.5-0.3-1-0.3-1.5
			c0.1-1.2,0.7-2.2,1.7-2.9c0.5-0.3,1-0.5,1.7-0.5c0.8,0,1.3,0.4,1.7,1.1C51.2,57.8,51.3,58.2,51.3,58.7z"/>
		<path d="M51.3,46.9c-0.1,1.5-0.8,2.7-2.2,3.4c-0.4,0.2-0.8,0.3-1.3,0.3c-0.8,0-1.3-0.4-1.7-1.1c-0.2-0.5-0.3-1-0.3-1.5
			c0.1-1.2,0.7-2.1,1.6-2.8c0.4-0.3,0.8-0.5,1.2-0.6c0.9-0.2,2.1,0.2,2.4,1.5C51.3,46.4,51.3,46.6,51.3,46.9z"/>
		<path d="M62.1,52.5c-0.1,1.5-0.7,2.6-2,3.3c-0.5,0.3-1,0.4-1.5,0.4c-0.7,0-1.2-0.4-1.6-1c-0.3-0.4-0.4-0.9-0.3-1.4
			c0.1-1.4,0.7-2.5,1.8-3.2c0.5-0.3,1-0.5,1.5-0.5c0.8,0,1.3,0.4,1.7,1C62.1,51.6,62.1,52,62.1,52.5z"/>
	</g>
</g>
</svg>
