<?xml version="1.0" encoding="UTF-8" standalone="no"?>
<!DOCTYPE svg PUBLIC "-//W3C//DTD SVG 1.1//EN" "http://www.w3.org/Graphics/SVG/1.1/DTD/svg11.dtd">
<svg width="100%" height="100%" viewBox="0 0 596 842" version="1.1" xmlns="http://www.w3.org/2000/svg" xmlns:xlink="http://www.w3.org/1999/xlink" xml:space="preserve" xmlns:serif="http://www.serif.com/" style="fill-rule:evenodd;clip-rule:evenodd;stroke-linecap:round;stroke-linejoin:round;">
    <path id="path2588" d="M253.351,413.676C252.204,412.628 251.057,411.275 250.45,409.787C249.843,408.298 249.775,406.674 249.91,404.949C250.045,403.223 250.383,401.397 251.058,399.909C251.732,398.42 252.744,397.269 254.362,396.323C255.982,395.376 258.208,394.631 260.637,393.989C263.065,393.346 265.697,392.805 268.058,393.041C270.418,393.278 272.51,394.293 274.77,394.868C277.029,395.443 279.458,395.579 282.055,395.68C284.653,395.782 287.419,395.849 289.645,395.646C291.871,395.443 293.558,394.97 295.076,394.225C296.593,393.481 297.944,392.466 300.338,391.789C302.733,391.113 306.173,390.775 309.411,390.606C312.649,390.436 315.685,390.436 318.08,390.335C320.475,390.233 322.229,390.03 324.118,390.673C326.007,391.316 328.031,392.805 329.953,394.597C331.876,396.39 333.698,398.488 334.642,400.145C335.586,401.803 335.654,403.02 335.283,404.644C334.912,406.268 334.102,408.298 332.517,409.415C330.932,410.53 328.57,410.733 325.636,410.936C322.701,411.139 319.193,411.342 316.866,410.936C314.538,410.53 313.391,409.516 313.358,408.535C313.324,407.554 314.404,406.606 314.976,405.727C315.55,404.848 315.618,404.036 314.775,403.596C313.931,403.156 312.177,403.088 310.794,403.156C309.411,403.223 308.399,403.426 306.983,403.426C305.566,403.426 303.744,403.223 302.058,402.75C300.372,402.276 298.819,401.532 297.572,401.431C296.324,401.329 295.379,401.87 294.84,402.783C294.3,403.697 294.165,404.983 293.322,406.065C292.479,407.147 290.927,408.028 289.207,408.467C287.486,408.907 285.597,408.907 283.945,408.332C282.292,407.757 280.875,406.606 279.864,405.355C278.852,404.103 278.244,402.75 277.333,402.209C276.423,401.667 275.208,401.938 274.365,402.75C273.522,403.562 273.05,404.915 272.072,405.659C271.094,406.403 269.609,406.539 267.922,406.404C266.236,406.268 264.347,405.862 262.863,405.287C261.379,404.712 260.299,403.968 259.49,404.036C258.68,404.103 258.14,404.983 257.972,406.268C257.803,407.553 258.006,409.245 258.411,410.97C258.815,412.695 259.423,414.455 259.187,415.334C258.951,416.213 257.871,416.213 256.758,415.842C255.645,415.47 254.497,414.725 253.351,413.676Z" style="fill:none;stroke:rgb(132,194,37);stroke-width:0.51px;"/>
    <path id="path2590" d="M244.108,446.256C241.612,447.203 238.778,448.353 236.215,449.368C233.651,450.383 231.358,451.262 229.267,452.649C227.175,454.036 225.286,455.931 223.431,457.622C221.576,459.314 219.754,460.802 218.304,462.527C216.854,464.252 215.773,466.215 215.437,468.345C215.099,470.476 215.505,472.777 215.37,475.145C215.235,477.513 214.56,479.949 214.762,481.167C214.964,482.385 216.045,482.385 216.617,483.263C217.19,484.143 217.258,485.903 217.09,487.662C216.921,489.42 216.516,491.18 217.19,492.668C217.865,494.156 219.619,495.374 220.968,496.693C222.318,498.013 223.263,499.434 224.477,499.772C225.691,500.11 227.175,499.366 228.187,498.386C229.199,497.404 229.739,496.186 230.177,493.92C230.616,491.654 230.954,488.337 231.324,485.328C231.695,482.317 232.1,479.61 232.707,477.919C233.314,476.227 234.124,475.551 234.529,474.266C234.933,472.98 234.933,471.085 235.439,469.293C235.945,467.5 236.957,465.808 238.609,464.93C240.262,464.05 242.557,463.981 244.648,463.644C246.738,463.305 248.628,462.696 249.437,461.952C250.247,461.208 249.977,460.328 249.876,459.212C249.774,458.096 249.842,456.742 250.314,455.356C250.786,453.969 251.664,452.547 252.912,451.262C254.159,449.977 255.779,448.827 256.992,447.812C258.207,446.797 259.017,445.917 259.05,445.174C259.084,444.429 258.342,443.82 256.858,443.617C255.374,443.415 253.148,443.617 250.956,444.09C248.763,444.564 246.604,445.309 244.108,446.256Z" style="fill:none;stroke:rgb(132,194,37);stroke-width:0.51px;"/>
    <path id="path2592" d="M257.093,302.263C256.064,301.434 254.546,300.114 253.096,299.268C251.645,298.423 250.263,298.051 248.762,298.321C247.261,298.592 245.641,299.506 244.208,299.945C242.774,300.385 241.526,300.351 240.447,300.064C239.368,299.776 238.456,299.235 237.226,298.846C235.995,298.457 234.442,298.219 232.858,298.608C231.273,298.998 229.652,300.013 228.287,300.554C226.92,301.096 225.808,301.163 224.931,300.944C224.054,300.723 223.413,300.216 222.755,299.726C222.098,299.235 221.423,298.761 220.175,298.913C218.928,299.065 217.105,299.844 214.964,300.249C212.823,300.655 210.359,300.69 208.387,300.487C206.413,300.284 204.928,299.844 202.922,299.336C200.915,298.829 198.384,298.254 196.159,297.966C193.933,297.679 192.009,297.679 189.851,297.831C187.692,297.983 185.297,298.288 183.223,299.691C181.149,301.095 179.395,303.599 177.574,305.442C175.752,307.285 173.863,308.471 172.446,310.128C171.03,311.785 170.085,313.916 170.018,315.827C169.95,317.739 170.76,319.43 172.007,320.986C173.256,322.542 174.942,323.964 176.881,324.639C178.821,325.316 181.014,325.248 182.852,324.674C184.691,324.099 186.175,323.016 186.917,322.069C187.659,321.122 187.659,320.31 187.844,319.617C188.03,318.923 188.401,318.348 189.143,318.179C189.885,318.01 190.998,318.247 192.617,318.078C194.236,317.908 196.361,317.333 198.334,316.927C200.307,316.521 202.13,316.284 203.529,316.182C204.928,316.081 205.908,316.116 205.89,316.673C205.873,317.231 204.862,318.314 203.31,319.701C201.758,321.087 199.666,322.78 197.609,324.115C195.552,325.451 193.528,326.433 190.847,328.005C188.164,329.579 184.825,331.744 181.503,334.314C178.181,336.885 174.875,339.863 173.981,342.738C173.087,345.613 174.605,348.388 176.426,350.181C178.247,351.973 180.373,352.785 182.228,352.752C184.082,352.718 185.669,351.838 187.254,350.756C188.839,349.673 190.425,348.387 192.819,348.438C195.214,348.488 198.419,349.876 201.252,350.433C204.085,350.992 206.549,350.721 208.049,350.265C209.549,349.808 210.09,349.165 209.921,348.709C209.752,348.252 208.875,347.981 207.847,347.846C206.817,347.711 205.637,347.711 204.457,347.575C203.276,347.44 202.095,347.169 201.167,346.966C200.24,346.763 199.565,346.628 199.312,346.324C199.059,346.019 199.228,345.546 199.498,345.089C199.768,344.633 200.139,344.192 200.476,343.449C200.813,342.704 201.118,341.655 201.387,340.827C201.657,339.998 201.893,339.389 202.467,338.764C203.04,338.138 203.95,337.494 204.743,336.903C205.536,336.311 206.211,335.77 206.7,335.448C207.189,335.127 207.493,335.024 207.796,335.245C208.1,335.465 208.403,336.006 208.875,336.733C209.347,337.46 209.988,338.375 211.05,339.271C212.113,340.167 213.597,341.047 215.098,341.419C216.599,341.791 218.118,341.655 219.905,341.334C221.693,341.013 223.75,340.505 225.116,339.66C226.482,338.814 227.157,337.63 227.865,336.108C228.574,334.586 229.316,332.725 229.804,331.237C230.293,329.748 230.531,328.632 230.935,328.023C231.339,327.414 231.914,327.312 232.938,327.37C233.963,327.43 235.442,327.651 237.077,327.981C238.714,328.311 240.51,328.752 241.913,329.251C243.316,329.75 244.327,330.308 245.389,331.042C246.451,331.777 247.564,332.691 248.761,333.402C249.958,334.112 251.241,334.619 251.713,334.518C252.185,334.416 251.847,333.706 251.796,332.826C251.746,331.947 251.983,330.898 252.623,330.255C253.264,329.613 254.31,329.376 255.423,329.021C256.536,328.666 257.717,328.192 259.15,327.397C260.583,326.602 262.27,325.486 263.451,324.336C264.631,323.186 265.306,322.001 265.475,320.817C265.644,319.633 265.306,318.449 264.817,316.403C264.328,314.356 263.687,311.446 262.726,309.197C261.765,306.948 260.482,305.358 259.572,304.394C258.662,303.429 258.122,303.091 257.093,302.263Z" style="fill:none;stroke:rgb(132,194,37);stroke-width:0.51px;"/>
    <path id="path2594" d="M270.148,424.232C269.069,425.01 267.786,426.703 266.505,427.886C265.223,429.07 263.942,429.746 263.031,431.167C262.12,432.588 261.58,434.754 261.446,436.242C261.31,437.73 261.581,438.542 261.85,439.76C262.12,440.978 262.39,442.602 262.491,443.853C262.593,445.104 262.524,445.985 262.963,446.762C263.402,447.54 264.347,448.217 265.088,448.555C265.83,448.893 266.371,448.893 267.348,448.522C268.326,448.149 269.743,447.405 270.822,445.917C271.902,444.428 272.644,442.195 273.116,439.726C273.588,437.257 273.791,434.55 273.926,432.318C274.06,430.085 274.129,428.326 273.96,426.973C273.791,425.62 273.386,424.672 272.746,424.131C272.105,423.59 271.227,423.455 270.148,424.232Z" style="fill:none;stroke:rgb(132,194,37);stroke-width:0.51px;"/>
    <path id="path2596" d="M139.003,599.291C139.727,603.848 140.454,608.406 144.929,614.189C149.403,619.973 157.628,626.984 166.728,632.309C175.829,637.636 185.808,641.276 194.369,644.309C202.93,647.343 210.077,649.77 216.683,651.186C223.289,652.601 229.357,653.006 232.862,652.399C236.367,651.793 237.312,650.174 235.963,647.815C234.615,645.456 230.975,642.354 228.278,639.726C225.582,637.097 223.829,634.939 223.087,633.524C222.345,632.108 222.616,631.433 224.435,631.096C226.255,630.759 229.626,630.759 234.211,630.759C238.794,630.759 244.592,630.759 249.446,630.49C254.299,630.22 258.21,629.68 262.524,629.815C266.838,629.95 271.558,630.759 275.198,632.58C278.838,634.399 281.401,637.231 284.433,639.86C287.467,642.489 290.974,644.916 294.344,646.534C297.714,648.152 300.95,648.961 302.635,648.354C304.321,647.747 304.456,645.725 303.849,643.096C303.243,640.467 301.894,637.231 301.759,634.399C301.624,631.568 302.704,629.141 303.916,627.928C305.13,626.714 306.478,626.714 308.163,628.265C309.849,629.815 311.872,632.917 313.287,636.152C314.703,639.388 315.512,642.759 317.264,646.264C319.017,649.77 321.714,653.41 325.085,657.86C328.455,662.309 332.5,667.567 336.141,671.342C339.781,675.117 343.016,677.41 353.196,681.657C363.375,685.904 380.499,692.106 393.037,694.398C405.577,696.69 413.532,695.072 421.15,692.511C428.767,689.949 436.048,686.443 441.913,682.196C447.778,677.949 452.228,672.96 453.913,667.972C455.599,662.983 454.519,657.994 454.25,654.355C453.98,650.714 454.52,648.421 455.868,647.41C457.216,646.399 459.374,646.67 462.069,647.073C464.766,647.478 468.002,648.018 472.938,647.857C477.876,647.696 484.514,646.835 491.152,645.975" style="fill:none;stroke:rgb(132,194,37);stroke-width:0.51px;"/>
    <path id="path2598" d="M311.536,364.763C310.625,365.609 310.017,366.963 309.815,368.214C309.612,369.465 309.815,370.616 310.389,371.834C310.962,373.052 311.907,374.337 312.784,375.487C313.66,376.637 314.471,377.653 315.55,378.329C316.628,379.005 317.979,379.343 318.99,379.749C320.002,380.155 320.677,380.629 321.115,381.136C321.554,381.644 321.756,382.186 322.093,382.49C322.43,382.794 322.902,382.862 323.138,382.49C323.375,382.118 323.375,381.306 323.105,380.089C322.836,378.871 322.295,377.246 321.52,375.588C320.744,373.931 319.732,372.24 318.586,370.718C317.438,369.196 316.157,367.842 315.516,366.625C314.875,365.406 314.875,364.324 314.268,363.952C313.66,363.58 312.446,363.918 311.536,364.763Z" style="fill:none;stroke:rgb(132,194,37);stroke-width:0.51px;"/>
    <path id="path2600" d="M374.444,406.91C372.69,407.553 371.61,408.636 370.767,410.259C369.924,411.882 369.316,414.048 368.608,415.333C367.9,416.619 367.09,417.025 366.854,417.972C366.618,418.919 366.956,420.408 367.697,422.065C368.439,423.722 369.587,425.55 369.52,427.444C369.452,429.338 368.169,431.301 367.428,432.823C366.686,434.345 366.483,435.428 366.989,435.969C367.495,436.51 368.709,436.51 370.26,436.003C371.812,435.496 373.702,434.48 375.591,433.128C377.479,431.774 379.368,430.083 380.987,427.512C382.606,424.941 383.956,421.49 384.597,418.412C385.238,415.334 385.17,412.627 384.462,410.598C383.754,408.568 382.404,407.214 380.515,406.64C378.626,406.064 376.198,406.268 374.444,406.91Z" style="fill:none;stroke:rgb(132,194,37);stroke-width:0.51px;"/>
    <path id="path2602" d="M303.573,407.808C302.511,407.655 301.6,407.621 300.993,407.858C300.385,408.095 300.081,408.603 299.845,409.211C299.61,409.82 299.44,410.532 299.996,411.427C300.553,412.323 301.836,413.407 303.117,414.286C304.399,415.165 305.681,415.842 306.592,416.078C307.502,416.316 308.042,416.113 308.497,415.656C308.953,415.2 309.324,414.489 309.459,413.66C309.594,412.831 309.492,411.884 309.054,411.004C308.616,410.125 307.839,409.313 306.845,408.772C305.85,408.23 304.635,407.959 303.573,407.808Z" style="fill:none;stroke:rgb(132,194,37);stroke-width:0.51px;"/>
    <path id="path2604" d="M512.266,502.849C510.646,503.83 508.689,505.59 507.07,507.349C505.452,509.107 504.169,510.867 503.63,512.186C503.09,513.505 503.292,514.384 504.068,514.485C504.844,514.587 506.194,513.911 507.306,513.539C508.419,513.167 509.297,513.099 509.972,513.573C510.646,514.046 511.118,515.061 511.523,516.347C511.927,517.632 512.266,519.189 512.805,520.846C513.344,522.503 514.086,524.263 514.896,524.838C515.705,525.413 516.583,524.804 516.954,522.673C517.325,520.542 517.189,516.887 517.055,513.573C516.92,510.258 516.785,507.28 516.684,505.318C516.583,503.357 516.515,502.409 515.841,502.037C515.166,501.666 513.884,501.869 512.266,502.849Z" style="fill:none;stroke:rgb(132,194,37);stroke-width:0.51px;"/>
    <path id="path2606" d="M264.037,182.774C263.225,182.002 262.567,181.353 261.974,180.936C261.381,180.519 260.853,180.332 260.068,180.698C259.284,181.063 258.244,181.982 257.354,182.919C256.465,183.856 255.727,184.811 255.053,185.506C254.379,186.2 253.767,186.633 253.217,186.719C252.666,186.804 252.175,186.54 252.117,185.747C252.059,184.954 252.435,183.629 252.844,182.388C253.254,181.147 253.698,179.987 253.968,178.913C254.238,177.839 254.335,176.848 254.033,176.263C253.73,175.679 253.027,175.5 251.74,175.116C250.453,174.731 248.58,174.141 247.045,173.594C245.509,173.048 244.307,172.546 243.408,172.08C242.51,171.615 241.913,171.186 241.935,170.801C241.957,170.415 242.598,170.072 243.436,169.752C244.272,169.431 245.305,169.133 246.509,168.815C247.712,168.497 249.086,168.158 250.308,167.972C251.53,167.787 252.602,167.753 253.353,167.643C254.103,167.536 254.534,167.352 254.725,166.89C254.917,166.429 254.871,165.688 254.899,164.569C254.928,163.451 255.031,161.953 255.142,160.384C255.253,158.815 255.372,157.173 255.54,156.096C255.708,155.018 255.926,154.503 256.239,154.082C256.551,153.662 256.959,153.334 257.42,153.393C257.879,153.452 258.394,153.897 258.875,154.73C259.355,155.563 259.801,156.787 260.229,157.934C260.657,159.081 261.066,160.154 261.555,161.369C262.044,162.584 262.611,163.943 263.31,164.715C264.009,165.487 264.84,165.673 265.976,165.605C267.111,165.536 268.552,165.214 269.985,164.906C271.418,164.599 272.845,164.305 274.151,164.162C275.456,164.017 276.641,164.019 277.298,164.232C277.954,164.446 278.084,164.869 277.956,165.429C277.829,165.989 277.444,166.685 276.358,167.486C275.273,168.288 273.485,169.195 271.86,170.002C270.235,170.809 268.772,171.518 267.765,171.99C266.759,172.463 266.207,172.699 265.936,173.018C265.665,173.336 265.674,173.738 265.92,174.417C266.166,175.096 266.65,176.054 267.43,177.48C268.209,178.906 269.283,180.8 269.908,182.177C270.532,183.554 270.707,184.416 270.814,185.13C270.92,185.843 270.959,186.411 270.817,186.736C270.673,187.061 270.349,187.146 269.646,186.873C268.944,186.6 267.864,185.968 266.84,185.204C265.816,184.441 264.849,183.545 264.037,182.774Z" style="fill:none;stroke:rgb(31,26,23);stroke-width:0.51px;"/>
    <path id="path2610" d="M332.787,528.728C330.662,530.081 330.257,532.112 328.841,534.141C327.424,536.171 324.995,538.201 322.836,538.674C320.678,539.148 318.788,538.065 317.068,538.403C314.421,538.924 310.443,542.02 307.387,543.105C303.497,544.488 300.472,547.037 296.223,547.673C292.151,548.282 287.689,547.906 283.541,548.146C275.654,548.601 268.241,546.462 260.232,547.232C251.84,548.042 243.983,541.909 238.002,536.88C233.835,533.377 230.997,531.965 230.111,526.428C229.807,524.535 229.739,522.437 229.099,520.576C228.458,518.716 227.244,517.092 225.928,516.347C224.613,515.603 223.196,515.738 221.88,516.956C220.565,518.174 219.35,520.475 218.17,522.842C216.99,525.21 215.842,527.646 214.797,529.033C213.752,530.42 212.806,530.759 211.896,530.725C210.985,530.691 210.108,530.284 208.692,528.661C207.275,527.038 205.318,524.196 204.879,521.388C204.441,518.58 205.521,515.806 206.161,513.642C206.802,511.476 207.005,509.919 207.073,508.5C207.141,507.079 207.072,505.793 206.566,504.846C206.061,503.898 205.116,503.29 204.239,502.073C203.363,500.854 202.552,499.027 202.755,497.167C202.958,495.307 204.172,493.412 204.812,491.586C205.453,489.758 205.521,487.999 204.577,486.342C203.632,484.685 201.676,483.128 198.808,481.031C195.942,478.933 192.164,476.295 188.42,472.439C184.675,468.582 180.965,463.507 178.335,459.144C175.703,454.781 174.151,451.126 172.498,444.563C170.846,438.001 169.092,428.529 166.9,421.222C164.707,413.915 162.076,408.774 159.85,402.075C157.624,395.378 155.802,387.123 155.094,379.681C154.385,372.239 154.79,365.608 155.735,358.301C156.679,350.995 158.163,343.011 159.276,333.607C160.389,324.203 163.865,301.344 164.235,291.804C164.607,282.265 153.314,291.321 153.719,284.928C154.123,278.535 163.493,268.724 165.314,264.868C167.134,261.012 169.969,257.831 175.366,253.806C180.762,249.781 188.723,244.909 196.177,241.526C203.632,238.144 210.581,236.249 219.182,234.423C227.783,232.596 238.037,230.836 248.797,229.855C259.557,228.874 270.824,228.671 284.248,229.246C297.673,229.822 313.257,231.175 324.86,232.595C336.463,234.016 344.087,235.505 353.194,238.076C362.301,240.646 372.893,244.301 381.157,247.413C389.42,250.524 395.357,253.096 399.371,255.632C403.385,258.169 405.477,260.673 407.736,264.698C409.996,268.724 412.425,274.273 414.415,279.211C416.405,284.15 417.957,288.48 419.238,292.167C420.52,295.854 421.532,298.899 421.296,301.267C421.06,303.635 419.576,305.326 418.396,306.307C417.215,307.289 416.337,307.559 414.955,306.917C413.572,306.274 411.683,304.717 409.288,302.654C406.893,300.591 403.992,298.019 401.699,295.922C399.405,293.825 397.718,292.201 396.066,291.22C394.413,290.239 392.793,289.901 390.972,288.988C389.151,288.074 387.126,286.586 385.137,285.131C383.147,283.677 381.19,282.255 379.47,281.715C377.749,281.174 376.266,281.512 374.613,282.154C372.96,282.796 371.138,283.745 369.317,284.387C367.496,285.03 365.674,285.368 364.191,285.807C362.706,286.247 361.558,286.789 359.704,287.059C357.849,287.33 355.285,287.33 353.531,287.398C351.777,287.465 350.832,287.601 349.787,287.905C348.741,288.209 347.594,288.683 345.942,288.987C344.289,289.292 342.13,289.427 338.892,289.698C335.654,289.969 331.336,290.375 326.951,290.848C322.567,291.321 318.113,291.863 314.37,292.709C310.626,293.554 307.59,294.704 305.533,296.294C303.476,297.884 302.395,299.914 301.856,302.62C301.316,305.326 301.316,308.71 300.608,311.585C299.9,314.46 298.483,316.828 297.471,319.027C296.46,321.225 295.851,323.256 296.525,325.353C297.201,327.45 299.157,329.616 299.967,332.389C300.777,335.162 300.438,338.546 299.73,341.556C299.022,344.567 297.942,347.206 297.909,350.216C297.875,353.227 298.887,356.611 299.798,358.065C300.709,359.519 301.518,359.045 302.597,357.388C303.677,355.731 305.026,352.888 306.577,350.927C308.129,348.965 309.883,347.882 311.805,345.921C313.728,343.959 315.82,341.117 316.427,338.986C317.035,336.855 316.157,335.434 315.179,334.351C314.202,333.269 313.121,332.524 313.088,331.476C313.054,330.428 314.067,329.074 315.044,328.093C316.023,327.112 316.967,326.503 317.945,326.536C318.923,326.571 319.935,327.247 321.284,327.518C322.633,327.789 324.321,327.653 325.871,327.282C327.423,326.909 328.841,326.3 330.122,325.421C331.403,324.541 332.551,323.391 333.292,322.444C334.034,321.497 334.372,320.752 334.709,320.008C335.152,321.423 335.595,322.837 336.149,324.206C336.703,325.577 337.367,326.903 338.432,327.963C339.497,329.023 340.965,329.819 342.65,330.376C344.335,330.935 346.238,331.256 348.053,331.416C349.869,331.577 351.599,331.577 353.071,331.172C354.543,330.766 355.757,329.953 356.943,329.066C358.129,328.178 359.289,327.213 360.064,325.962C360.839,324.711 361.233,323.171 361.627,321.631C362.233,322.105 362.841,322.579 363.549,323.56C364.257,324.541 365.067,326.029 365.472,327.281C365.877,328.532 365.877,329.548 365.371,330.562C364.865,331.577 363.853,332.592 362.501,333.353C361.149,334.114 359.455,334.622 357.623,334.892C355.79,335.162 353.817,335.197 351.73,334.977C349.641,334.757 347.437,334.284 345.796,334.115C344.155,333.945 343.074,334.081 342.838,334.419C342.602,334.757 343.21,335.299 344.053,335.873C344.896,336.449 345.976,337.058 347.797,337.734C349.618,338.41 352.182,339.155 354.576,339.358C356.972,339.561 359.197,339.222 361.288,338.546C363.38,337.87 365.337,336.855 367.125,336.313C368.912,335.772 370.531,335.704 372.251,336.448C373.972,337.192 375.793,338.749 377.547,340.136C379.301,341.523 380.988,342.74 383.585,343.18C386.182,343.62 389.69,343.282 392.321,343.383C394.952,343.485 396.706,344.026 398.764,345.04C400.821,346.055 403.183,347.545 405.847,348.694C408.512,349.844 411.48,350.656 412.728,350.656C413.976,350.656 413.504,349.844 412.762,348.695C412.02,347.545 411.008,346.055 410.435,344.974C409.861,343.891 409.726,343.214 410.097,342.943C410.468,342.673 411.346,342.808 412.661,343.62C413.976,344.432 415.73,345.921 416.607,347.611C417.484,349.303 417.484,351.198 417.754,352.957C418.024,354.716 418.564,356.34 418.126,358.471C417.687,360.602 416.27,363.241 415.326,365.609C414.382,367.976 413.909,370.074 412.694,372.611C411.48,375.147 409.524,378.126 407.568,380.831C405.612,383.537 403.654,385.973 401.125,388.172C398.595,390.371 395.492,392.333 392.962,394.903C390.433,397.475 388.476,400.656 388.51,404.545C388.543,408.435 390.567,413.036 392.118,417.128C393.67,421.222 394.75,424.808 396.234,427.717C397.718,430.627 399.608,432.86 400.416,435.159C401.226,437.46 400.956,439.829 399.472,441.723C397.988,443.616 395.29,445.038 392.626,445.038C389.961,445.038 387.329,443.616 385.339,442.568C383.349,441.52 381.999,440.843 380.212,441.147C378.424,441.452 376.198,442.738 374.883,444.462C373.567,446.188 373.162,448.353 372.218,449.469C371.273,450.585 369.789,450.653 368.272,449.773C366.753,448.894 365.202,447.067 363.414,445.241C361.627,443.414 359.602,441.586 357.377,440.606C355.151,439.625 352.721,439.49 349.72,438.745C346.718,438.001 343.142,436.648 338.724,435.16C334.305,433.671 329.043,432.047 325.332,430.119C321.622,428.192 319.463,425.958 317.339,424.267C315.214,422.576 313.121,421.425 311.166,420.681C309.209,419.937 307.387,419.599 305.971,420.038C304.554,420.478 303.542,421.696 302.362,423.319C301.182,424.943 299.832,426.974 299.292,429.442C298.753,431.911 299.022,434.822 300.237,436.919C301.451,439.016 303.61,440.301 306.207,441.452C308.804,442.602 311.84,443.617 314.167,444.598C316.494,445.578 318.114,446.526 319.766,447.507C321.419,448.488 323.106,449.503 323.309,449.976C323.511,450.45 322.229,450.382 320.273,450.146C318.316,449.909 315.685,449.503 312.785,448.928C309.884,448.353 306.713,447.608 304.15,447.338C301.586,447.067 299.629,447.27 298.112,447.642C296.594,448.014 295.514,448.556 294.435,449.097C293.356,449.638 292.276,450.179 291.096,450.28C289.915,450.382 288.633,450.044 287.014,449.435C285.395,448.826 283.439,447.947 281.28,448.183C279.122,448.42 276.76,449.773 274.399,451.363C272.038,452.953 269.676,454.781 267.248,456.438C264.82,458.095 262.323,459.584 258.984,461.41C255.644,463.237 251.462,465.403 248.393,466.958C245.323,468.515 243.366,469.462 242.962,470.442C242.557,471.424 243.704,472.439 245.457,472.946C247.211,473.454 249.573,473.454 252.406,472.744C255.239,472.033 258.546,470.612 262.255,469.428C265.966,468.244 270.082,467.296 274.871,466.89C279.661,466.484 285.126,466.62 289.038,466.721C292.95,466.823 295.312,466.89 298.145,466.418C300.979,465.944 304.284,464.928 307.488,464.624C310.693,464.319 313.796,464.726 316.359,465.504C318.923,466.281 320.947,467.432 323.51,467.973C326.074,468.515 329.178,468.447 332.18,468.582C335.181,468.717 338.083,469.056 340.207,468.684C342.332,468.312 343.682,467.229 345.031,466.586C346.38,465.943 347.73,465.74 348.842,466.382C349.955,467.026 350.833,468.515 351.844,470.848C352.856,473.182 354.003,476.363 354.037,478.494C354.071,480.625 352.991,481.708 351.237,482.282C349.483,482.858 347.055,482.926 344.02,482.046C340.984,481.166 337.34,479.34 334.642,478.088C331.943,476.836 330.189,476.159 327.322,476.396C324.455,476.633 320.475,477.783 315.921,478.764C311.368,479.746 306.24,480.558 300.742,481.436C295.244,482.316 289.375,483.264 284.957,483.771C280.538,484.278 277.569,484.346 274.062,484.414C270.555,484.481 260.382,481.843 257.786,482.688C255.189,483.534 257.453,485.153 258.027,486.81C258.6,488.467 263.605,492.871 266.236,494.562C268.867,496.253 271.836,497.945 274.196,498.622C276.558,499.298 278.312,498.96 280.369,498.622C282.427,498.283 284.788,497.945 287.558,497.979C290.327,498.014 293.506,498.423 296.339,498.66C299.173,498.896 301.661,498.962 304.659,498.962C307.657,498.96 311.165,498.892 314.032,499.433C316.899,499.975 319.126,501.125 321.25,502.106C323.375,503.087 325.4,503.899 327.761,503.798C330.122,503.696 332.821,502.681 335.249,502.106C337.678,501.531 339.837,501.396 342.299,500.956C344.761,500.516 347.527,499.772 349.281,499.636C351.035,499.501 351.777,499.975 352.181,501.362C352.586,502.748 352.655,505.049 352.317,507.552C351.979,510.055 351.237,512.762 349.551,515.874C347.865,518.986 345.233,522.505 341.996,524.602C338.758,526.699 334.911,527.376 332.787,528.728Z" style="fill:none;stroke:rgb(31,26,23);stroke-width:0.51px;"/>
    <path id="path2612" d="M507.074,507.347C508.693,505.588 510.65,503.828 512.27,502.848C513.888,501.867 515.17,501.664 515.845,502.036C516.519,502.407 516.587,503.355 516.688,505.317C516.789,507.278 516.924,510.256 517.058,513.571C517.193,516.886 517.329,520.54 516.958,522.671C516.587,524.802 515.709,525.411 514.899,524.836C514.09,524.262 513.348,522.502 512.809,520.844C512.27,519.187 511.931,517.631 511.527,516.345C511.122,515.059 510.65,514.044 509.976,513.571C509.301,513.097 508.423,513.165 507.31,513.537C506.198,513.909 504.848,514.586 504.072,514.484C503.296,514.383 503.094,513.503 503.634,512.184C504.173,510.865 505.456,509.105 507.074,507.347Z" style="fill:none;stroke:rgb(31,26,23);stroke-width:0.51px;"/>
    <path id="path2614" d="M248.762,333.402C249.959,334.112 251.242,334.62 251.714,334.519C252.186,334.417 251.848,333.706 251.797,332.827C251.747,331.948 251.984,330.899 252.624,330.256C253.265,329.614 254.311,329.377 255.424,329.022C256.537,328.667 257.718,328.193 259.151,327.398C260.584,326.603 262.271,325.487 263.451,324.337C264.632,323.187 265.307,322.002 265.476,320.818C265.645,319.634 265.306,318.45 264.818,316.404C264.329,314.357 263.688,311.447 262.727,309.198C261.766,306.949 260.483,305.358 259.573,304.395C258.663,303.43 258.123,303.092 257.094,302.264C256.065,301.435 254.547,300.115 253.097,299.269C251.646,298.424 250.263,298.051 248.763,298.322C247.262,298.593 245.642,299.507 244.209,299.946C242.775,300.386 241.527,300.352 240.448,300.065C239.368,299.777 238.457,299.236 237.227,298.847C235.996,298.458 234.443,298.22 232.859,298.609C231.273,298.999 229.653,300.014 228.287,300.555C226.921,301.096 225.808,301.164 224.932,300.945C224.055,300.724 223.414,300.216 222.756,299.727C222.099,299.236 221.424,298.762 220.176,298.914C218.929,299.066 217.106,299.845 214.965,300.25C212.823,300.656 210.36,300.691 208.388,300.488C206.414,300.285 204.929,299.844 202.922,299.337C200.916,298.83 198.385,298.254 196.16,297.967C193.934,297.68 192.01,297.68 189.852,297.832C187.693,297.984 185.298,298.289 183.224,299.692C181.149,301.096 179.396,303.6 177.574,305.443C175.753,307.286 173.864,308.472 172.447,310.129C171.031,311.786 170.086,313.917 170.018,315.828C169.951,317.74 170.761,319.431 172.008,320.987C173.257,322.543 174.943,323.965 176.882,324.64C178.822,325.317 181.015,325.249 182.853,324.675C184.691,324.1 186.176,323.017 186.918,322.07C187.66,321.123 187.66,320.311 187.845,319.618C188.031,318.924 188.402,318.349 189.144,318.18C189.886,318.01 190.999,318.248 192.618,318.078C194.237,317.909 196.362,317.334 198.335,316.928C200.308,316.522 202.131,316.285 203.53,316.183C204.929,316.082 205.908,316.116 205.891,316.674C205.874,317.232 204.862,318.315 203.311,319.702C201.759,321.088 199.667,322.781 197.61,324.116C195.553,325.452 193.529,326.434 190.847,328.006C188.165,329.58 184.826,331.745 181.504,334.315C178.182,336.886 174.875,339.864 173.982,342.739C173.088,345.614 174.606,348.389 176.427,350.181C178.248,351.974 180.374,352.786 182.228,352.753C184.083,352.719 185.669,351.839 187.255,350.757C188.84,349.674 190.426,348.388 192.82,348.439C195.215,348.489 198.42,349.877 201.253,350.434C204.086,350.993 206.549,350.722 208.05,350.266C209.55,349.809 210.091,349.166 209.922,348.709C209.753,348.253 208.876,347.982 207.848,347.847C206.818,347.711 205.638,347.711 204.458,347.576C203.277,347.441 202.095,347.17 201.168,346.967C200.241,346.764 199.566,346.629 199.313,346.325C199.06,346.02 199.229,345.546 199.499,345.09C199.769,344.634 200.14,344.193 200.477,343.45C200.814,342.705 201.119,341.656 201.388,340.828C201.658,339.999 201.894,339.39 202.468,338.765C203.04,338.138 203.951,337.495 204.744,336.904C205.537,336.312 206.212,335.77 206.7,335.449C207.19,335.128 207.494,335.025 207.797,335.246C208.1,335.466 208.404,336.007 208.876,336.734C209.348,337.461 209.989,338.376 211.051,339.272C212.114,340.168 213.598,341.048 215.099,341.42C216.6,341.791 218.119,341.656 219.906,341.335C221.694,341.014 223.751,340.506 225.117,339.661C226.483,338.815 227.158,337.631 227.866,336.109C228.575,334.587 229.317,332.725 229.805,331.238C230.294,329.749 230.531,328.633 230.936,328.024C231.34,327.415 231.914,327.313 232.939,327.371C233.964,327.431 235.443,327.652 237.078,327.982C238.715,328.312 240.51,328.753 241.913,329.252C243.316,329.751 244.328,330.308 245.39,331.043C246.452,331.778 247.565,332.692 248.762,333.402Z" style="fill:none;stroke:rgb(31,26,23);stroke-width:0.51px;"/>
    <path id="path2616" d="M309.814,368.211C309.612,369.462 309.815,370.613 310.388,371.831C310.962,373.049 311.907,374.334 312.783,375.484C313.66,376.634 314.47,377.65 315.549,378.326C316.628,379.002 317.979,379.34 318.989,379.746C320.002,380.152 320.677,380.626 321.115,381.133C321.553,381.641 321.756,382.182 322.092,382.486C322.43,382.791 322.902,382.859 323.138,382.487C323.374,382.115 323.374,381.302 323.105,380.086C322.835,378.868 322.295,377.243 321.519,375.585C320.743,373.928 319.732,372.237 318.585,370.715C317.438,369.193 316.156,367.839 315.515,366.622C314.874,365.403 314.874,364.321 314.267,363.949C313.66,363.577 312.446,363.915 311.535,364.76C310.625,365.606 310.017,366.96 309.814,368.211Z" style="fill:none;stroke:rgb(31,26,23);stroke-width:0.51px;"/>
    <path id="path2618" d="M370.766,410.259C369.923,411.882 369.315,414.048 368.607,415.333C367.9,416.619 367.089,417.025 366.853,417.972C366.617,418.919 366.955,420.408 367.696,422.065C368.438,423.722 369.586,425.55 369.519,427.444C369.451,429.338 368.169,431.301 367.427,432.823C366.685,434.345 366.482,435.428 366.988,435.969C367.494,436.51 368.708,436.51 370.259,436.003C371.811,435.496 373.701,434.48 375.59,433.128C377.478,431.774 379.368,430.083 380.987,427.512C382.605,424.941 383.955,421.49 384.596,418.412C385.237,415.334 385.169,412.627 384.461,410.598C383.753,408.568 382.403,407.214 380.514,406.64C378.625,406.064 376.197,406.268 374.443,406.91C372.689,407.553 371.609,408.636 370.766,410.259Z" style="fill:none;stroke:rgb(31,26,23);stroke-width:0.51px;"/>
    <path id="path2620" d="M335.281,404.646C335.652,403.023 335.584,401.805 334.64,400.148C333.696,398.49 331.873,396.392 329.951,394.6C328.029,392.807 326.005,391.318 324.115,390.675C322.227,390.033 320.473,390.236 318.078,390.338C315.683,390.439 312.647,390.439 309.409,390.608C306.171,390.777 302.73,391.115 300.336,391.792C297.942,392.469 296.591,393.484 295.073,394.228C293.556,394.972 291.869,395.446 289.643,395.649C287.416,395.852 284.651,395.784 282.053,395.682C279.456,395.581 277.027,395.446 274.768,394.87C272.508,394.296 270.416,393.281 268.056,393.044C265.695,392.807 263.063,393.349 260.635,393.992C258.206,394.634 255.98,395.378 254.36,396.325C252.742,397.272 251.73,398.423 251.055,399.912C250.381,401.399 250.043,403.226 249.907,404.951C249.773,406.676 249.841,408.301 250.448,409.789C251.055,411.277 252.202,412.63 253.348,413.679C254.495,414.727 255.643,415.472 256.756,415.844C257.868,416.216 258.949,416.216 259.185,415.336C259.421,414.457 258.813,412.697 258.408,410.972C258.004,409.248 257.801,407.556 257.969,406.27C258.138,404.986 258.678,404.106 259.488,404.038C260.297,403.971 261.377,404.715 262.861,405.29C264.344,405.864 266.234,406.271 267.92,406.406C269.607,406.542 271.092,406.406 272.07,405.661C273.048,404.918 273.52,403.564 274.363,402.752C275.206,401.941 276.42,401.67 277.331,402.211C278.242,402.752 278.85,404.106 279.861,405.357C280.873,406.609 282.29,407.76 283.943,408.334C285.595,408.909 287.484,408.909 289.205,408.47C290.925,408.03 292.476,407.15 293.32,406.067C294.163,404.986 294.298,403.7 294.838,402.786C295.377,401.873 296.322,401.332 297.569,401.434C298.817,401.535 300.37,402.279 302.056,402.752C303.742,403.226 305.564,403.429 306.981,403.429C308.397,403.429 309.409,403.226 310.792,403.158C312.175,403.091 313.929,403.158 314.773,403.599C315.616,404.038 315.548,404.85 314.974,405.73C314.402,406.609 313.321,407.557 313.356,408.537C313.389,409.518 314.536,410.533 316.863,410.939C319.191,411.345 322.699,411.142 325.634,410.939C328.568,410.736 330.93,410.533 332.515,409.417C334.1,408.301 334.91,406.27 335.281,404.646Z" style="fill:none;stroke:rgb(31,26,23);stroke-width:0.51px;"/>
    <path id="path2622" d="M309.458,413.663C309.594,412.834 309.492,411.887 309.054,411.007C308.615,410.128 307.839,409.316 306.844,408.774C305.849,408.233 304.635,407.962 303.573,407.811C302.51,407.658 301.599,407.624 300.993,407.861C300.385,408.097 300.081,408.605 299.845,409.214C299.61,409.823 299.44,410.534 299.996,411.43C300.553,412.326 301.836,413.409 303.117,414.288C304.398,415.168 305.68,415.845 306.591,416.081C307.502,416.318 308.042,416.115 308.497,415.659C308.953,415.202 309.324,414.491 309.458,413.663Z" style="fill:none;stroke:rgb(31,26,23);stroke-width:0.51px;"/>
    <path id="path2624" d="M273.114,439.724C273.586,437.255 273.789,434.548 273.924,432.316C274.058,430.083 274.127,428.323 273.958,426.971C273.789,425.618 273.384,424.67 272.744,424.129C272.103,423.588 271.225,423.453 270.146,424.23C269.067,425.008 267.785,426.701 266.503,427.884C265.221,429.068 263.94,429.744 263.029,431.165C262.119,432.585 261.578,434.751 261.444,436.239C261.309,437.728 261.579,438.54 261.848,439.758C262.118,440.975 262.388,442.6 262.489,443.851C262.591,445.102 262.522,445.982 262.961,446.76C263.4,447.538 264.345,448.215 265.086,448.553C265.828,448.891 266.369,448.891 267.347,448.52C268.325,448.147 269.741,447.403 270.82,445.915C271.9,444.426 272.642,442.193 273.114,439.724Z" style="fill:none;stroke:rgb(31,26,23);stroke-width:0.51px;"/>
    <path id="path2626" d="M256.994,447.808C258.208,446.793 259.018,445.914 259.052,445.17C259.085,444.426 258.343,443.816 256.859,443.614C255.375,443.411 253.149,443.614 250.957,444.087C248.764,444.56 246.605,445.305 244.11,446.252C241.614,447.199 238.779,448.35 236.216,449.364C233.653,450.379 231.359,451.259 229.268,452.646C227.176,454.032 225.287,455.928 223.433,457.619C221.578,459.31 219.755,460.799 218.305,462.523C216.855,464.249 215.775,466.212 215.438,468.342C215.101,470.473 215.506,472.774 215.371,475.141C215.236,477.509 214.561,479.946 214.763,481.163C214.965,482.381 216.046,482.381 216.618,483.26C217.191,484.14 217.26,485.9 217.091,487.658C216.922,489.417 216.517,491.177 217.191,492.664C217.866,494.153 219.62,495.371 220.969,496.69C222.319,498.01 223.264,499.43 224.478,499.769C225.692,500.107 227.176,499.363 228.188,498.382C229.2,497.401 229.74,496.183 230.178,493.916C230.617,491.65 230.955,488.334 231.325,485.324C231.696,482.314 232.101,479.606 232.708,477.915C233.315,476.224 234.125,475.547 234.53,474.262C234.934,472.977 234.934,471.082 235.44,469.289C235.946,467.496 236.958,465.805 238.61,464.926C240.263,464.047 242.558,463.978 244.649,463.641C246.74,463.302 248.63,462.693 249.439,461.949C250.248,461.204 249.979,460.325 249.877,459.209C249.776,458.092 249.844,456.739 250.315,455.352C250.787,453.966 251.666,452.544 252.913,451.259C254.161,449.973 255.78,448.823 256.994,447.808Z" style="fill:none;stroke:rgb(31,26,23);stroke-width:0.51px;"/>
    <g transform="matrix(-0.307993,-0.667195,0.667195,-0.307993,111.811,806.476)">
        <g id="path2628">
            <path d="M175.365,253.805C180.761,249.78 188.722,244.908 196.176,241.525C203.631,238.143 210.58,236.248 219.181,234.422C227.783,232.595 238.037,230.835 248.796,229.854C259.556,228.874 270.823,228.671 284.247,229.245C297.672,229.821 313.256,231.174 324.859,232.594C336.462,234.015 344.086,235.504 353.193,238.075C362.3,240.646 372.892,244.3 381.156,247.412C389.419,250.523 395.356,253.095 399.37,255.631C403.384,258.168 405.476,260.673 407.735,264.697C409.995,268.723 412.424,274.272 414.414,279.21C416.404,284.149 417.956,288.479 419.237,292.166C420.519,295.853 421.531,298.898 421.296,301.266C421.059,303.634 419.575,305.325 418.395,306.306C417.214,307.288 416.336,307.559 414.954,306.916C413.571,306.273 411.682,304.717 409.287,302.653C406.892,300.59 403.991,298.018 401.698,295.922C399.404,293.825 397.717,292.2 396.065,291.219C394.412,290.238 392.792,289.9 390.971,288.987C389.15,288.073 387.126,286.585 385.136,285.131C383.146,283.676 381.189,282.254 379.469,281.714C377.749,281.173 376.265,281.511 374.612,282.153C372.96,282.796 371.137,283.744 369.316,284.386C367.495,285.029 365.673,285.367 364.19,285.806C362.706,286.247 361.558,286.788 359.703,287.058C357.848,287.329 355.284,287.329 353.53,287.397C351.776,287.464 350.831,287.6 349.786,287.904C348.74,288.209 347.593,288.682 345.941,288.986C344.288,289.291 342.129,289.426 338.892,289.697C335.654,289.968 331.335,290.374 326.95,290.847C322.566,291.32 318.113,291.863 314.369,292.708C310.625,293.553 307.589,294.703 305.532,296.293C303.475,297.883 302.394,299.913 301.855,302.619C301.315,305.325 301.315,308.709 300.608,311.584C299.899,314.459 298.482,316.827 297.471,319.026C296.459,321.225 295.85,323.255 296.525,325.352C297.2,327.449 299.156,329.615 299.966,332.388C300.776,335.161 300.437,338.545 299.729,341.555C299.021,344.566 297.941,347.205 297.908,350.215C297.874,353.226 298.886,356.61 299.797,358.064C300.708,359.518 301.517,359.045 302.596,357.387C303.676,355.73 305.026,352.887 306.577,350.926C308.128,348.964 309.883,347.881 311.804,345.92C313.727,343.958 315.82,341.116 316.426,338.985C317.034,336.854 316.157,335.433 315.179,334.35C314.201,333.268 313.121,332.523 313.087,331.475C313.053,330.427 314.066,329.073 315.043,328.092C316.022,327.111 316.966,326.502 317.944,326.536C318.922,326.57 319.934,327.246 321.283,327.517C322.633,327.788 324.32,327.652 325.871,327.281C327.422,326.908 328.84,326.299 330.121,325.42C331.402,324.54 332.55,323.39 333.291,322.443C334.033,321.496 334.372,320.751 334.708,320.008C335.151,321.422 335.595,322.836 336.148,324.205C336.702,325.576 337.366,326.902 338.431,327.962C339.497,329.022 340.965,329.818 342.649,330.376C344.334,330.934 346.237,331.255 348.053,331.416C349.869,331.576 351.599,331.576 353.07,331.171C354.542,330.765 355.756,329.952 356.942,329.065C358.128,328.178 359.288,327.212 360.063,325.961C360.839,324.71 361.232,323.17 361.626,321.63C362.232,322.104 362.84,322.578 363.548,323.559C364.257,324.54 365.066,326.029 365.471,327.28C365.876,328.532 365.876,329.547 365.37,330.561C364.864,331.576 363.852,332.591 362.5,333.352C361.148,334.113 359.454,334.621 357.622,334.891C355.789,335.161 353.817,335.197 351.729,334.976C349.64,334.756 347.436,334.283 345.795,334.114C344.154,333.945 343.073,334.08 342.837,334.418C342.601,334.756 343.209,335.298 344.052,335.872C344.895,336.448 345.975,337.057 347.796,337.733C349.617,338.409 352.181,339.154 354.575,339.358C356.971,339.561 359.197,339.221 361.287,338.545C363.379,337.869 365.336,336.854 367.124,336.313C368.911,335.771 370.53,335.704 372.25,336.447C373.971,337.191 375.793,338.748 377.546,340.135C379.3,341.522 380.987,342.74 383.584,343.179C386.181,343.619 389.689,343.281 392.32,343.382C394.951,343.484 396.705,344.025 398.763,345.039C400.82,346.054 403.182,347.544 405.846,348.693C408.511,349.844 411.479,350.655 412.727,350.655C413.976,350.655 413.503,349.844 412.761,348.694C412.019,347.544 411.007,346.054 410.434,344.973C409.861,343.89 409.725,343.213 410.097,342.943C410.467,342.672 411.345,342.807 412.66,343.619C413.976,344.431 415.729,345.92 416.606,347.61C417.483,349.302 417.483,351.198 417.753,352.956C418.023,354.715 418.563,356.339 418.125,358.47C417.686,360.601 416.269,363.241 415.325,365.608C414.381,367.975 413.908,370.074 412.694,372.61C411.479,375.147 409.523,378.125 407.567,380.83C405.611,383.536 403.653,385.973 401.124,388.171C398.594,390.37 395.491,392.332 392.961,394.902C390.432,397.474 388.475,400.655 388.509,404.544C388.543,408.434 390.567,413.035 392.117,417.127C393.669,421.221 394.75,424.807 396.233,427.716C397.717,430.626 399.607,432.859 400.415,435.159C401.225,437.459 400.955,439.828 399.471,441.722C397.987,443.615 395.289,445.037 392.625,445.037C389.96,445.037 387.328,443.615 385.338,442.567C383.348,441.519 381.998,440.842 380.211,441.146C378.423,441.451 376.197,442.737 374.882,444.461C373.566,446.187 373.161,448.353 372.217,449.469C371.273,450.584 369.788,450.652 368.271,449.773C366.752,448.893 365.201,447.066 363.413,445.24C361.626,443.413 359.601,441.586 357.376,440.605C355.15,439.624 352.721,439.489 349.719,438.744C346.717,438 343.141,436.647 338.723,435.159C334.304,433.671 329.042,432.046 325.331,430.119C321.621,428.191 319.462,425.957 317.338,424.266C315.213,422.575 313.121,421.425 311.165,420.68C309.209,419.936 307.386,419.598 305.97,420.037C304.553,420.477 303.541,421.695 302.361,423.318C301.181,424.942 299.831,426.973 299.292,429.441C298.752,431.911 299.021,434.821 300.236,436.918C301.45,439.015 303.609,440.301 306.206,441.451C308.803,442.601 311.839,443.616 314.166,444.597C316.493,445.577 318.113,446.525 319.765,447.506C321.418,448.487 323.105,449.502 323.308,449.976C323.51,450.449 322.228,450.381 320.272,450.145C318.315,449.908 315.684,449.502 312.784,448.927C309.883,448.352 306.712,447.608 304.149,447.337C301.585,447.066 299.628,447.269 298.111,447.641C296.593,448.013 295.513,448.555 294.434,449.096C293.355,449.637 292.275,450.179 291.095,450.28C289.914,450.381 288.632,450.043 287.014,449.434C285.394,448.825 283.438,447.946 281.279,448.182C279.121,448.419 276.759,449.773 274.398,451.362C272.037,452.952 269.676,454.78 267.247,456.437C264.819,458.094 262.322,459.583 258.983,461.409C255.644,463.236 251.461,465.402 248.392,466.957C245.322,468.514 243.365,469.461 242.961,470.441C242.556,471.423 243.703,472.438 245.456,472.945C247.21,473.453 249.573,473.453 252.406,472.743C255.238,472.032 258.545,470.611 262.254,469.427C265.965,468.243 270.081,467.295 274.87,466.889C279.66,466.483 285.125,466.619 289.037,466.72C292.95,466.822 295.311,466.889 298.144,466.417C300.978,465.943 304.284,464.927 307.487,464.623C310.692,464.318 313.795,464.725 316.359,465.503C318.922,466.281 320.946,467.431 323.509,467.972C326.073,468.514 329.177,468.446 332.179,468.581C335.18,468.717 338.082,469.055 340.206,468.683C342.331,468.311 343.681,467.228 345.03,466.585C346.379,465.942 347.729,465.739 348.842,466.382C349.954,467.025 350.832,468.514 351.843,470.847C352.855,473.182 354.003,476.362 354.036,478.493C354.07,480.624 352.99,481.707 351.236,482.281C349.483,482.857 347.054,482.925 344.019,482.045C340.983,481.166 337.339,479.339 334.641,478.087C331.942,476.835 330.188,476.158 327.321,476.395C324.454,476.632 320.474,477.782 315.921,478.763C311.367,479.745 306.239,480.557 300.742,481.435C295.243,482.315 289.374,483.263 284.956,483.77C280.537,484.277 277.568,484.345 274.061,484.413C270.554,484.48 260.381,481.842 257.785,482.687C255.189,483.533 257.453,485.152 258.026,486.809C258.599,488.466 263.605,492.87 266.235,494.561C268.866,496.252 271.835,497.944 274.196,498.621C276.557,499.297 278.311,498.959 280.368,498.621C282.426,498.282 284.787,497.944 287.557,497.978C290.327,498.013 293.505,498.422 296.338,498.659C299.172,498.895 301.661,498.961 304.658,498.961C307.656,498.959 311.164,498.891 314.031,499.433C316.899,499.974 319.125,501.124 321.249,502.105C323.375,503.086 325.399,503.898 327.76,503.797C330.121,503.695 332.82,502.68 335.248,502.105C337.677,501.53 339.836,501.395 342.298,500.955C344.76,500.515 347.526,499.771 349.28,499.636C351.034,499.5 351.776,499.974 352.181,501.361C352.585,502.747 352.654,505.049 352.316,507.551C351.978,510.054 351.236,512.762 349.55,515.873C347.864,518.985 345.232,522.504 341.995,524.601C338.757,526.698 334.911,527.375 332.786,528.727C330.661,530.081 330.256,532.111 328.84,534.14C327.423,536.17 324.994,538.2 322.836,538.673C320.677,539.147 318.787,538.064 317.067,538.402C314.42,538.923 310.442,542.019 307.386,543.105C303.496,544.487 300.471,547.036 296.222,547.672C292.15,548.281 287.688,547.905 283.54,548.145C275.654,548.6 268.24,546.461 260.231,547.232C251.839,548.041 243.982,541.908 238.001,536.88C233.834,533.376 230.996,531.964 230.11,526.427C229.806,524.534 229.738,522.436 229.098,520.575C228.457,518.715 227.243,517.091 225.927,516.347C224.612,515.602 223.195,515.738 221.88,516.955C220.564,518.173 219.349,520.474 218.169,522.842C216.989,525.21 215.841,527.645 214.796,529.032C213.751,530.419 212.806,530.758 211.895,530.725C210.985,530.69 210.107,530.283 208.691,528.661C207.274,527.037 205.317,524.195 204.878,521.387C204.44,518.58 205.52,515.805 206.16,513.641C206.801,511.476 207.004,509.919 207.072,508.499C207.14,507.078 207.071,505.792 206.566,504.845C206.06,503.898 205.115,503.289 204.238,502.072C203.362,500.853 202.551,499.026 202.754,497.167C202.957,495.306 204.171,493.411 204.811,491.585C205.452,489.758 205.52,487.999 204.576,486.341C203.631,484.684 201.675,483.127 198.808,481.03C195.941,478.932 192.163,476.294 188.419,472.438C184.674,468.581 180.964,463.507 178.334,459.144C175.702,454.78 174.15,451.125 172.497,444.563C170.845,438 169.091,428.528 166.899,421.222C164.706,413.915 162.075,408.773 159.849,402.075C157.623,395.377 155.801,387.122 155.093,379.68C154.384,372.238 154.789,365.607 155.734,358.3C156.678,350.994 158.162,343.01 159.275,333.606C160.388,324.202 163.864,301.343 164.235,291.804C164.606,282.264 153.314,291.32 153.718,284.927C154.122,278.534 163.492,268.723 165.313,264.867C167.133,261.011 169.968,257.83 175.365,253.805ZM138.699,589.348C139.542,593.339 139.273,596.317 139.003,599.294C139.727,603.85 140.454,608.408 144.929,614.191C149.403,619.975 157.628,626.987 166.728,632.312C175.829,637.638 185.808,641.278 194.369,644.312C202.93,647.345 210.077,649.772 216.683,651.188C223.289,652.604 229.357,653.008 232.862,652.401C236.367,651.795 237.312,650.177 235.963,647.817C234.615,645.458 230.975,642.356 228.278,639.728C225.582,637.099 223.829,634.941 223.087,633.526C222.345,632.11 222.616,631.435 224.435,631.098C226.255,630.762 229.626,630.762 234.211,630.762C238.794,630.762 244.592,630.762 249.446,630.492C254.299,630.222 258.21,629.683 262.524,629.817C266.838,629.952 271.558,630.762 275.198,632.582C278.838,634.402 281.401,637.233 284.433,639.862C287.467,642.491 290.974,644.918 294.344,646.537C297.714,648.154 300.95,648.963 302.635,648.356C304.321,647.75 304.456,645.727 303.849,643.098C303.243,640.469 301.894,637.233 301.759,634.402C301.624,631.57 302.704,629.143 303.916,627.93C305.13,626.716 306.478,626.716 308.163,628.267C309.849,629.817 311.872,632.919 313.287,636.154C314.703,639.39 315.512,642.761 317.264,646.266C319.017,649.772 321.714,653.412 325.085,657.862C328.455,662.311 332.5,667.569 336.141,671.344C339.781,675.12 343.016,677.413 353.196,681.659C363.375,685.906 380.499,692.109 393.037,694.4C405.577,696.692 413.532,695.075 421.15,692.513C428.767,689.951 436.048,686.445 441.913,682.198C447.778,677.952 452.228,672.962 453.913,667.974C455.599,662.986 454.519,657.997 454.25,654.357C453.98,650.717 454.52,648.424 455.868,647.412C457.216,646.401 459.374,646.672 462.069,647.075C464.766,647.48 468.002,648.02 472.938,647.859C477.876,647.698 484.514,646.838 491.152,645.977C487.577,644.759 484,643.541 481.201,642.527C478.401,641.512 476.377,640.699 473.746,638.433C471.116,636.167 467.877,632.445 465.583,628.757C463.29,625.071 461.94,621.417 461.029,617.729C460.119,614.043 459.647,610.322 459.444,607.074C459.242,603.827 459.31,601.053 459.142,599.023C458.973,596.994 458.567,595.707 457.994,594.422C457.421,593.137 456.679,591.851 456.476,590.633C456.274,589.416 456.612,588.265 458.062,587.285C459.512,586.304 462.076,585.492 464.977,583.936C467.877,582.38 471.116,580.079 473.038,577.61C474.96,575.14 475.568,572.502 475.332,569.727C475.096,566.954 474.016,564.044 472.667,561.845C471.319,559.647 469.698,558.158 467.371,556.737C465.044,555.317 462.008,553.964 460.625,553.016C459.242,552.069 459.512,551.528 460.827,551.223C462.142,550.919 464.505,550.851 466.9,550.886C469.294,550.919 471.723,551.054 473.982,551.934C476.242,552.813 478.335,554.437 480.291,556.061C482.246,557.684 484.069,559.309 485.619,560.222C487.171,561.135 488.453,561.338 489.498,561.068C490.544,560.797 491.354,560.053 492.231,559.478C493.108,558.903 494.052,558.497 494.761,558.869C495.468,559.241 495.942,560.391 496.145,562.455C496.347,564.518 496.278,567.495 495.064,570.167C493.851,572.84 491.488,575.208 489.6,576.967C487.711,578.726 486.294,579.877 484.877,581.026C485.687,581.161 486.497,581.297 488.049,581.161C489.6,581.026 491.893,580.62 495.301,578.963C498.707,577.306 503.227,574.395 506.668,569.863C510.107,565.33 512.469,559.173 513.65,554.099C514.83,549.025 514.83,545.032 514.965,542.225C515.1,539.418 515.37,537.793 516.112,537.624C516.854,537.456 518.069,538.741 518.912,540.331C519.755,541.921 520.227,543.816 520.7,545.71C520.969,542.936 521.239,540.161 521.948,536.88C522.655,533.6 523.803,529.81 523.803,526.596C523.803,523.384 522.655,520.744 522.115,517.869C521.576,514.994 521.644,511.881 522.015,509.377C522.386,506.875 523.061,504.98 523.162,503.627C523.263,502.275 522.791,501.462 522.756,499.872C522.723,498.282 523.128,495.914 524.545,493.072C525.961,490.232 528.39,486.915 530.717,481.909C533.045,476.903 535.272,470.205 536.688,463.71C538.105,457.215 538.712,450.923 538.678,445.409C538.644,439.895 537.969,435.159 536.957,427.378C535.946,419.598 534.596,408.773 534.225,402.108C533.854,395.445 534.462,392.94 535.136,390.843C535.811,388.747 536.553,387.055 538.61,386.581C540.667,386.107 544.042,386.852 547.921,389.254C551.799,391.655 556.184,395.715 559.624,399.301C563.065,402.886 565.561,405.999 568.057,409.111C564.415,402.481 560.771,395.85 556.386,390.606C552.002,385.364 546.874,381.507 544.715,379.274C542.557,377.042 543.367,376.433 545.02,376.602C546.672,376.771 549.168,377.719 551.395,379.14C553.621,380.56 555.577,382.454 557.533,384.349C557.466,383.605 557.398,382.86 556.487,381.304C555.577,379.749 553.823,377.38 551.9,375.35C549.978,373.321 547.885,371.629 545.221,370.445C542.557,369.262 539.319,368.584 536.215,367.807C533.112,367.029 530.144,366.149 528.424,365.337C526.704,364.525 526.231,363.781 525.928,362.056C525.624,360.331 525.489,357.624 525.219,355.155C524.95,352.686 524.545,350.452 524.14,348.22C523.736,351.264 523.33,354.31 522.723,356.271C522.116,358.233 521.307,359.113 520.025,359.248C518.743,359.384 516.989,358.774 514.898,357.455C512.807,356.136 510.378,354.106 508.185,351.332C505.993,348.559 504.036,345.039 502.519,341.893C501.001,338.748 499.921,335.973 499.82,334.35C499.719,332.726 500.597,332.253 502.384,332.591C504.171,332.93 506.87,334.08 509.13,336.38C511.389,338.68 513.212,342.131 514.426,344.939C515.639,347.746 516.247,349.912 516.854,352.076C517.326,350.724 517.798,349.37 518.035,348.051C518.271,346.732 518.271,345.446 517.899,344.262C517.529,343.078 516.786,341.995 516.415,341.082C516.044,340.169 516.044,339.424 516.011,338.409C515.978,337.395 515.909,336.11 515.606,334.824C515.303,333.539 514.762,332.253 513.481,331.069C512.2,329.886 510.176,328.802 508.489,328.092C506.803,327.382 505.453,327.043 505.082,326.4C504.711,325.758 505.319,324.811 505.791,323.931C506.262,323.052 506.601,322.24 510.109,321.191C513.616,320.143 520.295,318.857 526.198,318.383C532.1,317.91 537.228,318.248 542.354,318.587C539.252,317.504 536.147,316.421 533.212,315.609C530.278,314.798 527.513,314.256 524.949,313.986C522.386,313.715 520.025,313.715 518.069,313.647C516.112,313.58 514.56,313.444 513.549,313.241C512.536,313.038 512.064,312.768 512.435,309.79C512.806,306.814 514.021,301.131 514.258,295.211C514.494,289.291 513.751,283.134 512.536,277.316C511.322,271.498 509.636,266.017 508.017,262.194C506.398,258.372 504.846,256.207 504.239,253.23C503.631,250.253 503.969,246.464 502.383,242.27C500.798,238.076 497.29,233.474 493.073,228.839C488.858,224.206 483.932,219.536 480.694,216.56C477.457,213.583 475.905,212.297 473.645,207.494C471.385,202.691 468.417,194.368 464.268,187.907C460.119,181.446 454.789,176.846 449.055,172.719C443.321,168.592 437.182,164.938 431.178,161.555C425.175,158.173 419.304,155.06 409.86,151.981C400.416,148.904 387.395,145.858 377.918,143.389C368.44,140.921 362.503,139.026 357.14,136.725C351.776,134.425 346.987,131.719 343.074,129.418C339.161,127.118 336.125,125.223 332.55,124.107C328.975,122.991 324.859,122.653 320.71,122.754C316.562,122.856 312.379,123.397 308.702,122.957C305.026,122.518 301.854,121.096 296.829,119.98C291.803,118.865 284.922,118.052 278.243,117.713C271.565,117.376 265.088,117.511 260.704,118.188C256.319,118.864 254.024,120.082 250.955,120.792C247.886,121.502 244.04,121.705 239.453,122.315C234.866,122.924 229.536,123.938 222.891,125.663C216.247,127.388 208.286,129.825 200.359,132.733C192.433,135.642 184.539,139.026 177.76,142.984C170.98,146.941 165.313,151.475 160.658,155.67C156.004,159.864 152.36,163.72 149.696,166.224C147.031,168.727 145.344,169.877 142.039,172.584C138.733,175.289 133.808,179.553 131.245,183.037C128.682,186.52 128.479,189.228 127.838,191.527C127.197,193.827 126.117,195.722 124.397,198.09C122.677,200.457 120.316,203.3 118.494,207.19C116.674,211.079 115.392,216.02 114.987,220.485C114.582,224.949 115.054,228.942 115.458,232.122C115.863,235.301 116.201,237.67 115.796,239.834C115.392,241.999 114.245,243.962 112.828,246.059C111.412,248.156 109.725,250.389 108.814,252.993C107.903,255.598 107.768,258.576 107.937,262.601C108.106,266.626 108.578,271.701 110.433,277.451C112.288,283.202 115.526,289.629 117.752,294.027C119.978,298.424 121.193,300.793 122.408,303.16C121.868,304.852 121.328,306.544 119.978,309.25C118.63,311.956 116.471,315.678 114.649,319.737C112.828,323.796 111.344,328.194 109.421,331.374C107.499,334.553 105.137,336.516 102.675,338.511C100.213,340.507 97.649,342.537 95.591,344.398C93.534,346.257 91.982,347.95 88.609,349.81C85.237,351.67 80.042,353.7 76.567,355.392C73.093,357.082 71.339,358.436 68.506,360.094C65.673,361.751 61.76,363.713 58.859,364.83C55.959,365.946 54.069,366.217 52.146,366.454C50.224,366.691 48.267,366.894 46.412,367.874C44.557,368.855 42.803,370.615 40.375,372.272C37.946,373.93 34.842,375.486 31.841,376.399C28.839,377.312 25.937,377.583 23.037,377.853C26.679,378.936 30.323,380.018 33.325,379.782C36.326,379.546 38.688,377.989 41.218,376.568C43.747,375.147 46.446,373.862 48.875,373.016C51.303,372.17 53.463,371.765 55.116,371.832C56.767,371.9 57.915,372.441 59.77,372.779C61.624,373.118 64.188,373.253 66.314,373.761C68.438,374.268 70.125,375.147 71.002,376.399C71.878,377.65 71.947,379.275 72.588,381.034C73.228,382.793 74.443,384.687 75.623,386.141C76.804,387.596 77.951,388.612 78.625,389.931C79.3,391.249 79.503,392.874 79.3,394.159C79.098,395.444 78.49,396.392 77.41,396.865C76.331,397.339 74.78,397.339 73.16,396.696C71.541,396.054 69.855,394.767 68.742,393.042C67.629,391.318 67.089,389.152 66.55,386.987C66.279,389.558 66.01,392.13 66.381,394.396C66.752,396.662 67.763,398.624 68.371,399.978C68.978,401.33 69.181,402.075 68.709,402.481C68.237,402.886 67.089,402.954 65.369,402.379C63.649,401.804 61.355,400.586 59.23,399.132C57.105,397.677 55.148,395.985 53.192,394.294C54.069,396.526 54.946,398.76 56.666,400.857C58.386,402.954 60.95,404.917 63.616,406.371C66.279,407.825 69.046,408.773 71.002,409.957C72.958,411.141 74.105,412.561 74.746,414.185C75.386,415.809 75.522,417.636 75.354,420.444C75.185,423.25 74.712,427.041 74.543,430.592C74.374,434.143 74.511,437.46 75.152,441.045C75.792,444.63 76.939,448.488 77.074,452.107C77.209,455.726 76.331,459.11 75.15,461.782C73.97,464.454 72.486,466.417 70.833,468.142C69.181,469.867 67.358,471.355 65.301,472.201C63.244,473.047 60.95,473.25 58.691,472.979C56.43,472.708 54.204,471.964 52.483,469.766C50.763,467.567 49.549,463.913 49.584,460.733C49.617,457.554 50.899,454.846 52.181,452.141C51.236,452.682 50.291,453.224 49.077,453.798C47.863,454.373 46.379,454.983 45.029,457.181C43.681,459.379 42.466,463.169 42.567,467.194C42.668,471.219 44.085,475.483 47.391,478.459C50.696,481.435 55.891,483.128 60.58,484.007C65.268,484.886 69.451,484.954 73.465,484.074C77.478,483.195 81.324,481.368 84.394,479.778C87.462,478.188 89.757,476.835 91.443,476.395C93.128,475.956 94.209,476.429 95.457,477.411C96.704,478.391 98.122,479.88 99.909,482.045C101.696,484.21 103.856,487.052 105.474,489.454C107.093,491.855 108.174,493.817 108.579,495.339C108.983,496.862 108.713,497.944 107.836,498.993C106.959,500.042 105.474,501.056 104.058,502.342C102.641,503.627 101.292,505.184 100.482,506.367C99.674,507.551 99.403,508.363 99.538,509.412C99.673,510.46 100.213,511.746 100.078,512.559C99.943,513.37 99.133,513.708 97.784,513.81C96.435,513.911 94.546,513.776 91.578,512.828C88.609,511.882 84.562,510.122 81.796,507.957C79.03,505.793 77.546,503.221 76.938,500.921C76.331,498.621 76.601,496.591 77.006,494.122C77.41,491.652 77.951,488.742 78.49,485.833C76.939,486.984 75.386,488.134 73.566,489.859C71.744,491.584 69.652,493.885 68.573,496.659C67.495,499.432 67.426,502.681 67.899,506.401C68.371,510.122 69.383,514.318 71.778,518.241C74.172,522.165 77.951,525.819 82.1,528.83C86.248,531.84 90.768,534.208 95.288,536.576C90.364,536.508 85.438,536.441 81.256,535.696C77.073,534.952 73.633,533.531 70.766,531.536C67.899,529.54 65.605,526.968 63.312,524.398C64.053,527.51 64.795,530.623 66.212,533.43C67.628,536.237 69.721,538.741 70.901,540.771C72.081,542.8 72.351,544.357 72.79,546.048C73.228,547.739 73.836,549.566 74.848,551.359C75.859,553.152 77.276,554.911 78.93,556.028C80.582,557.144 82.471,557.617 86.518,557.888C90.566,558.159 96.772,558.226 101.09,558.294C105.407,558.362 107.836,558.429 110.264,558.497C108.916,560.256 107.566,562.016 106.419,564.891C105.273,567.765 104.328,571.758 102.877,575.749C101.427,579.741 99.471,583.734 97.514,587.725C99.808,587.657 102.102,587.589 105.104,586.743C108.106,585.898 111.816,584.274 115.56,582.515C119.304,580.756 123.082,578.861 125.612,576.324C128.142,573.788 129.424,570.607 130.706,567.428C131.784,570.066 132.865,572.705 134.383,576.528C135.9,580.349 137.856,585.357 138.699,589.348ZM507.072,507.349C508.691,505.59 510.648,503.83 512.267,502.849C513.886,501.869 515.168,501.666 515.842,502.037C516.517,502.409 516.585,503.357 516.686,505.318C516.786,507.28 516.922,510.258 517.056,513.573C517.191,516.887 517.327,520.542 516.956,522.673C516.585,524.804 515.707,525.413 514.897,524.838C514.088,524.263 513.346,522.503 512.806,520.846C512.267,519.189 511.929,517.632 511.524,516.347C511.12,515.061 510.648,514.046 509.974,513.573C509.299,513.099 508.421,513.167 507.308,513.539C506.196,513.911 504.845,514.587 504.07,514.485C503.294,514.384 503.092,513.505 503.632,512.186C504.171,510.867 505.453,509.107 507.072,507.349ZM253.217,186.717C252.667,186.802 252.175,186.538 252.118,185.745C252.06,184.952 252.435,183.627 252.845,182.386C253.255,181.145 253.698,179.986 253.969,178.911C254.239,177.837 254.335,176.846 254.033,176.261C253.731,175.677 253.027,175.498 251.741,175.114C250.454,174.729 248.581,174.139 247.045,173.592C245.509,173.046 244.307,172.544 243.409,172.079C242.51,171.613 241.913,171.184 241.936,170.799C241.957,170.414 242.598,170.071 243.436,169.75C244.273,169.429 245.306,169.131 246.509,168.813C247.712,168.495 249.087,168.156 250.309,167.971C251.53,167.785 252.603,167.751 253.353,167.642C254.103,167.534 254.534,167.351 254.726,166.888C254.918,166.427 254.871,165.686 254.9,164.567C254.928,163.449 255.032,161.951 255.143,160.382C255.254,158.813 255.372,157.172 255.54,156.094C255.709,155.016 255.927,154.501 256.239,154.08C256.552,153.66 256.959,153.332 257.42,153.391C257.88,153.45 258.394,153.895 258.875,154.729C259.355,155.562 259.801,156.785 260.23,157.933C260.658,159.079 261.067,160.152 261.556,161.368C262.044,162.582 262.612,163.942 263.311,164.714C264.01,165.486 264.84,165.672 265.976,165.603C267.111,165.535 268.553,165.212 269.985,164.904C271.419,164.597 272.846,164.304 274.152,164.16C275.456,164.015 276.641,164.018 277.299,164.23C277.955,164.444 278.084,164.867 277.957,165.427C277.829,165.987 277.444,166.683 276.358,167.485C275.273,168.286 273.486,169.193 271.861,170C270.236,170.808 268.772,171.517 267.765,171.989C266.759,172.461 266.208,172.697 265.937,173.016C265.666,173.334 265.674,173.736 265.92,174.415C266.166,175.094 266.651,176.053 267.43,177.478C268.209,178.904 269.283,180.798 269.908,182.175C270.533,183.552 270.707,184.414 270.814,185.128C270.92,185.841 270.96,186.409 270.817,186.734C270.674,187.06 270.349,187.145 269.647,186.871C268.945,186.598 267.864,185.966 266.84,185.202C265.817,184.44 264.85,183.543 264.037,182.772C263.225,182 262.567,181.351 261.974,180.934C261.382,180.517 260.853,180.33 260.069,180.696C259.285,181.062 258.244,181.98 257.355,182.917C256.466,183.854 255.727,184.81 255.053,185.504C254.379,186.198 253.768,186.632 253.217,186.717Z" style="fill:rgb(31,26,23);stroke:rgb(31,26,23);stroke-width:0.5px;"/>
        </g>
    </g>
    <g transform="matrix(1.76145,0,0,1.76145,-260.14,-397.096)">
        <g id="path2630">
            <path d="M214.965,300.25C212.823,300.656 210.36,300.691 208.388,300.488C206.414,300.285 204.929,299.844 202.922,299.337C200.916,298.83 198.385,298.254 196.16,297.967C193.934,297.68 192.01,297.68 189.852,297.832C187.693,297.984 185.298,298.289 183.224,299.692C181.149,301.096 179.396,303.6 177.574,305.443C175.753,307.286 173.864,308.472 172.447,310.129C171.031,311.786 170.086,313.917 170.018,315.828C169.951,317.74 170.761,319.431 172.008,320.987C173.257,322.543 174.943,323.965 176.882,324.64C178.822,325.317 181.015,325.249 182.853,324.675C184.691,324.1 186.176,323.017 186.918,322.07C187.66,321.123 187.66,320.311 187.845,319.618C188.031,318.924 188.402,318.349 189.144,318.18C189.886,318.01 190.999,318.248 192.618,318.078C194.237,317.909 196.362,317.334 198.335,316.928C200.308,316.522 202.131,316.285 203.53,316.183C204.929,316.082 205.908,316.116 205.891,316.674C205.874,317.232 204.862,318.315 203.311,319.702C201.759,321.088 199.667,322.781 197.61,324.116C195.553,325.452 193.529,326.434 190.847,328.006C188.165,329.58 184.826,331.745 181.504,334.315C178.182,336.886 174.875,339.864 173.982,342.739C173.088,345.614 174.606,348.389 176.427,350.181C178.248,351.974 180.374,352.786 182.228,352.753C184.083,352.719 185.669,351.839 187.255,350.757C188.84,349.674 190.426,348.388 192.82,348.439C195.215,348.489 198.42,349.877 201.253,350.434C204.086,350.993 206.549,350.722 208.05,350.266C209.55,349.809 210.091,349.166 209.922,348.709C209.753,348.253 208.876,347.982 207.848,347.847C206.818,347.711 205.638,347.711 204.458,347.576C203.277,347.441 202.095,347.17 201.168,346.967C200.241,346.764 199.566,346.629 199.313,346.325C199.06,346.02 199.229,345.546 199.499,345.09C199.769,344.634 200.14,344.193 200.477,343.45C200.814,342.705 201.119,341.656 201.388,340.828C201.658,339.999 201.894,339.39 202.468,338.765C203.04,338.138 203.951,337.495 204.744,336.904C205.537,336.312 206.212,335.77 206.7,335.449C207.19,335.128 207.494,335.025 207.797,335.246C208.1,335.466 208.404,336.007 208.876,336.734C209.348,337.461 209.989,338.376 211.051,339.272C212.114,340.168 213.598,341.048 215.099,341.42C216.6,341.791 218.119,341.656 219.906,341.335C221.694,341.014 223.751,340.506 225.117,339.661C226.483,338.815 227.158,337.631 227.866,336.109C228.575,334.587 229.317,332.725 229.805,331.238C230.294,329.749 230.531,328.633 230.936,328.024C231.34,327.415 231.914,327.313 232.939,327.371C233.964,327.431 235.443,327.652 237.078,327.982C238.715,328.312 240.51,328.753 241.913,329.252C243.316,329.751 244.328,330.308 245.39,331.043C246.452,331.778 247.565,332.692 248.762,333.402C249.959,334.112 251.242,334.62 251.714,334.519C252.186,334.417 251.848,333.706 251.797,332.827C251.747,331.948 251.984,330.899 252.624,330.256C253.265,329.614 254.311,329.377 255.424,329.022C256.537,328.667 257.718,328.193 259.151,327.398C260.584,326.603 262.271,325.487 263.451,324.337C264.632,323.187 265.307,322.002 265.476,320.818C265.645,319.634 265.306,318.45 264.818,316.404C264.329,314.357 263.688,311.447 262.727,309.198C261.766,306.949 260.483,305.358 259.573,304.395C258.663,303.43 258.123,303.092 257.094,302.264C256.065,301.435 254.547,300.115 253.097,299.269C251.646,298.424 250.263,298.051 248.763,298.322C247.262,298.593 245.642,299.507 244.209,299.946C242.775,300.386 241.527,300.352 240.448,300.065C239.368,299.777 238.457,299.236 237.227,298.847C235.996,298.458 234.443,298.22 232.859,298.609C231.273,298.999 229.653,300.014 228.287,300.555C226.921,301.096 225.808,301.164 224.932,300.945C224.055,300.724 223.414,300.216 222.756,299.727C222.099,299.236 221.424,298.762 220.176,298.914C218.929,299.066 217.106,299.845 214.965,300.25Z" style="fill:rgb(31,26,23);stroke:rgb(31,26,23);stroke-width:0.5px;"/>
        </g>
    </g>
    <g id="path2632" transform="matrix(2.12009,0,0,2.12009,-76.5939,-807.315)">
        <path d="M236.215,449.365C233.651,450.38 231.358,451.26 229.267,452.647C227.175,454.033 225.286,455.929 223.431,457.62C221.576,459.311 219.754,460.799 218.304,462.524C216.854,464.249 215.773,466.212 215.437,468.343C215.099,470.474 215.505,472.775 215.37,475.142C215.235,477.51 214.56,479.946 214.762,481.164C214.964,482.382 216.045,482.382 216.617,483.261C217.19,484.141 217.258,485.901 217.09,487.659C216.921,489.418 216.516,491.178 217.19,492.665C217.865,494.154 219.619,495.372 220.968,496.691C222.318,498.01 223.263,499.431 224.477,499.77C225.691,500.108 227.175,499.364 228.187,498.383C229.199,497.402 229.739,496.184 230.177,493.917C230.616,491.651 230.954,488.335 231.324,485.325C231.695,482.314 232.1,479.607 232.707,477.916C233.314,476.225 234.124,475.548 234.529,474.263C234.933,472.978 234.933,471.082 235.439,469.29C235.945,467.497 236.957,465.806 238.609,464.927C240.262,464.047 242.557,463.979 244.648,463.641C246.738,463.303 248.628,462.694 249.437,461.95C250.247,461.205 249.977,460.326 249.876,459.21C249.774,458.093 249.842,456.74 250.314,455.353C250.786,453.966 251.664,452.545 252.912,451.26C254.159,449.974 255.779,448.824 256.992,447.809C258.207,446.794 259.017,445.914 259.05,445.171C259.084,444.427 258.342,443.817 256.858,443.615C255.374,443.412 253.148,443.615 250.956,444.088C248.763,444.561 246.604,445.306 244.108,446.253C241.612,447.2 238.778,448.35 236.215,449.365Z" style="fill:rgb(31,26,23);stroke:rgb(31,26,23);stroke-width:0.5px;"/>
    </g>
    <g id="path2634" transform="matrix(1,0,0,1,-187.646,-156.419)">
        <path d="M261.851,439.759C262.121,440.977 262.391,442.601 262.492,443.852C262.594,445.103 262.526,445.984 262.964,446.761C263.403,447.539 264.348,448.216 265.089,448.554C265.831,448.893 266.372,448.893 267.35,448.521C268.328,448.148 269.744,447.404 270.824,445.916C271.903,444.428 272.645,442.194 273.117,439.725C273.589,437.256 273.792,434.549 273.927,432.317C274.061,430.084 274.13,428.325 273.961,426.972C273.792,425.619 273.387,424.671 272.747,424.13C272.106,423.589 271.228,423.454 270.149,424.231C269.07,425.01 267.788,426.702 266.506,427.885C265.224,429.069 263.943,429.746 263.032,431.166C262.122,432.587 261.581,434.753 261.447,436.241C261.312,437.729 261.582,438.541 261.851,439.759Z" style="fill:rgb(31,26,23);stroke:rgb(31,26,23);stroke-width:0.5px;"/>
    </g>
    <path id="path2636" d="M299.999,411.43C300.556,412.326 301.839,413.409 303.12,414.288C304.402,415.168 305.684,415.844 306.595,416.081C307.505,416.318 308.045,416.115 308.5,415.658C308.956,415.202 309.327,414.491 309.462,413.663C309.597,412.833 309.495,411.886 309.057,411.007C308.619,410.127 307.842,409.315 306.848,408.774C305.853,408.232 304.638,407.962 303.576,407.81C302.514,407.658 301.603,407.623 300.996,407.86C300.388,408.097 300.084,408.605 299.849,409.213C299.613,409.822 299.443,410.534 299.999,411.43Z" style="fill:rgb(31,26,23);stroke:rgb(31,26,23);stroke-width:0.5px;"/>
    <g transform="matrix(1.28238,0,0,1.28238,-216.541,-233.149)">
        <g id="path2638">
            <path d="M302.06,402.751C303.745,403.225 305.568,403.428 306.984,403.428C308.401,403.428 309.412,403.225 310.796,403.157C312.178,403.089 313.933,403.157 314.776,403.597C315.62,404.037 315.551,404.849 314.978,405.729C314.405,406.607 313.325,407.555 313.359,408.536C313.393,409.517 314.54,410.532 316.867,410.938C319.195,411.344 322.702,411.141 325.637,410.938C328.571,410.735 330.933,410.532 332.519,409.416C334.103,408.299 334.914,406.269 335.284,404.645C335.656,403.022 335.587,401.804 334.643,400.147C333.699,398.489 331.877,396.391 329.954,394.598C328.032,392.806 326.008,391.317 324.119,390.674C322.23,390.032 320.476,390.235 318.081,390.336C315.686,390.438 312.65,390.438 309.412,390.607C306.174,390.776 302.734,391.114 300.339,391.791C297.945,392.467 296.594,393.483 295.077,394.227C293.559,394.971 291.872,395.445 289.646,395.648C287.42,395.851 284.654,395.783 282.057,395.681C279.46,395.58 277.031,395.445 274.771,394.869C272.511,394.294 270.42,393.28 268.059,393.042C265.698,392.806 263.066,393.347 260.638,393.99C258.209,394.633 255.983,395.377 254.364,396.324C252.745,397.27 251.733,398.422 251.059,399.91C250.385,401.398 250.046,403.225 249.911,404.95C249.776,406.675 249.845,408.299 250.451,409.788C251.058,411.276 252.206,412.629 253.352,413.677C254.499,414.726 255.647,415.471 256.759,415.843C257.872,416.215 258.952,416.215 259.189,415.335C259.425,414.456 258.816,412.696 258.412,410.971C258.007,409.247 257.804,407.554 257.973,406.269C258.142,404.984 258.682,404.105 259.491,404.037C260.3,403.969 261.381,404.714 262.865,405.288C264.348,405.863 266.238,406.27 267.924,406.405C269.61,406.54 271.095,406.404 272.073,405.66C273.051,404.917 273.523,403.563 274.366,402.751C275.21,401.939 276.424,401.669 277.335,402.21C278.245,402.751 278.853,404.105 279.865,405.356C280.876,406.607 282.294,407.758 283.946,408.333C285.598,408.908 287.488,408.908 289.208,408.468C290.928,408.029 292.48,407.148 293.323,406.066C294.166,404.984 294.301,403.698 294.841,402.785C295.381,401.872 296.326,401.33 297.573,401.432C298.821,401.533 300.373,402.278 302.06,402.751Z" style="fill:rgb(31,26,23);stroke:rgb(31,26,23);stroke-width:0.5px;"/>
        </g>
    </g>
    <g id="path2640" transform="matrix(1,0,0,1,149.306,242.623)">
        <path d="M312.785,375.484C313.661,376.635 314.472,377.65 315.551,378.326C316.63,379.003 317.98,379.341 318.991,379.747C320.003,380.153 320.678,380.626 321.116,381.134C321.555,381.641 321.757,382.183 322.094,382.487C322.432,382.792 322.904,382.859 323.14,382.487C323.376,382.115 323.376,381.303 323.107,380.086C322.837,378.868 322.296,377.243 321.521,375.586C320.745,373.929 319.733,372.237 318.587,370.715C317.439,369.193 316.158,367.839 315.517,366.622C314.876,365.404 314.876,364.321 314.269,363.95C313.661,363.577 312.448,363.915 311.537,364.761C310.626,365.606 310.018,366.96 309.816,368.212C309.614,369.463 309.817,370.613 310.39,371.831C310.963,373.049 311.908,374.335 312.785,375.484Z" style="fill:rgb(31,26,23);stroke:rgb(31,26,23);stroke-width:0.5px;"/>
    </g>
    <g id="path2642" transform="matrix(1,0,0,1,105.91,-169.112)">
        <path d="M370.766,410.259C369.923,411.882 369.315,414.048 368.607,415.333C367.9,416.619 367.089,417.025 366.853,417.972C366.617,418.919 366.955,420.408 367.696,422.065C368.438,423.722 369.586,425.55 369.519,427.444C369.451,429.338 368.169,431.301 367.427,432.823C366.685,434.345 366.482,435.428 366.988,435.969C367.494,436.51 368.708,436.51 370.259,436.003C371.811,435.496 373.701,434.48 375.59,433.128C377.478,431.774 379.368,430.083 380.987,427.512C382.605,424.941 383.955,421.49 384.596,418.412C385.237,415.334 385.169,412.627 384.461,410.598C383.753,408.568 382.403,407.214 380.514,406.64C378.625,406.064 376.197,406.268 374.443,406.91C372.689,407.553 371.609,408.636 370.766,410.259Z" style="fill:rgb(31,26,23);stroke:rgb(31,26,23);stroke-width:0.5px;"/>
    </g>
</svg>
